<?xml version="1.0" encoding="utf-8"?>
<!-- Generator: Adobe Illustrator 25.0.1, SVG Export Plug-In . SVG Version: 6.00 Build 0)  -->
<svg version="1.1" id="Layer_1" xmlns="http://www.w3.org/2000/svg" xmlns:xlink="http://www.w3.org/1999/xlink" x="0px" y="0px"
	 viewBox="0 0 72.555 45" style="enable-background:new 0 0 72.555 45;" xml:space="preserve">
<style type="text/css">
	.st0{fill:#980101;}
	.st1{fill:#FBCB12;}
</style>
<g>
	<path class="st0" d="M16.629,14.031h0.173c1.541,0,2.952,0.325,4.222,0.969c2.673-4.959,7.915-8.33,13.945-8.33
		c5.627,0,10.569,2.937,13.376,7.362h4.964c-0.075-0.163-0.152-0.325-0.233-0.485l1.768-1.62l-0.78-1.351l-2.288,0.721
		c-0.173-0.256-0.349-0.509-0.531-0.756l1.462-1.905L51.703,7.44l-2.128,1.108c-0.213-0.222-0.431-0.441-0.654-0.653l1.107-2.129
		l-1.195-1.003L46.93,6.224c-0.248-0.182-0.501-0.359-0.757-0.531l0.722-2.288l-1.352-0.78l-1.62,1.767
		C43.647,4.256,43.367,4.125,43.085,4l0.312-2.375L41.931,1.09l-1.287,2.021c-0.297-0.086-0.594-0.166-0.896-0.239l-0.104-2.394
		l-1.537-0.271L37.19,2.424c-0.305-0.034-0.612-0.06-0.92-0.079L35.749,0h-1.56l-0.52,2.344c-0.31,0.02-0.614,0.046-0.919,0.079
		l-0.92-2.217l-1.538,0.271l-0.104,2.394c-0.3,0.074-0.597,0.153-0.894,0.239l-1.288-2.02L26.54,1.624l0.312,2.375
		c-0.283,0.125-0.562,0.256-0.838,0.392l-1.619-1.767l-1.352,0.78l0.721,2.288c-0.255,0.172-0.508,0.349-0.756,0.531l-1.905-1.461
		l-1.196,1.003l1.108,2.129c-0.221,0.212-0.441,0.431-0.651,0.653l-2.128-1.108l-1.004,1.196l1.461,1.905
		c-0.183,0.247-0.359,0.5-0.531,0.756l-2.287-0.721l-0.781,1.351l1.767,1.62C16.781,13.706,16.704,13.868,16.629,14.031z"/>
	<g>
		<path class="st1" d="M23.734,30.81h-5.537v-7.394c0-0.432-0.149-0.806-0.447-1.121s-0.659-0.479-1.081-0.491h-2.237v9.007H9.394
			v-9.007H7.198c-0.468,0.012-0.861,0.186-1.181,0.519c-0.32,0.333-0.48,0.735-0.48,1.204v7.283H0v-7.143
			c0.012-2.042,0.709-3.762,2.089-5.158s3.087-2.095,5.121-2.095h9.594c1.934,0,3.57,0.668,4.907,2.003
			c1.337,1.335,2.012,2.969,2.024,4.9v7.493H23.734z"/>
		<path class="st1" d="M62.078,23.428c0,2.043-0.714,3.783-2.141,5.223s-3.162,2.159-5.204,2.159H45.43
			c-1.932,0-3.605-0.689-5.02-2.067s-2.122-3.033-2.122-4.965v-11.11l5.537-0.019v4.023c0.652-0.172,1.242-0.258,1.77-0.258h9.569
			c1.93,0,3.565,0.686,4.905,2.058C61.408,19.845,62.078,21.497,62.078,23.428z M56.928,23.557c0-0.455-0.142-0.836-0.425-1.144
			c-0.283-0.307-0.646-0.461-1.089-0.461h-9.449c-0.48,0-0.877,0.163-1.19,0.489c-0.314,0.326-0.471,0.735-0.471,1.227
			c0,0.455,0.148,0.837,0.443,1.144c0.295,0.308,0.67,0.461,1.126,0.461h9.302c0.467,0,0.877-0.169,1.228-0.507
			C56.753,24.428,56.928,24.025,56.928,23.557z"/>
		<path class="st1" d="M72.555,16.322h-1.283c-2.042,0-3.75,0.655-5.121,1.966c-1.372,1.31-2.064,2.981-2.076,5.011v7.512h5.537
			v-7.622c0-0.455,0.163-0.855,0.489-1.2s0.717-0.517,1.172-0.517h1.283L72.555,16.322L72.555,16.322z"/>
		<path class="st1" d="M35.953,26.488h-1.694c-0.382,0-0.71-0.145-0.984-0.434c-0.274-0.289-0.41-0.625-0.41-1.007v-3.873h3.074
			v-4.131h-3.074v-4.148h-4.648v4.148H25.4v4.131h2.817v3.781c0.01,1.704,0.591,3.106,1.743,4.206c1.151,1.1,2.585,1.65,4.299,1.65
			h1.694V26.488z"/>
	</g>
	<path class="st0" d="M52.134,33.194H46.64c-2.894,3.157-7.052,5.137-11.671,5.137c-4.621,0-8.778-1.98-11.672-5.137h-5.496
		c0.172,0.256,0.709,1.018,0.892,1.266l-1.461,1.903l1.004,1.197l2.128-1.109c0.211,0.223,0.43,0.44,0.651,0.653l-1.108,2.129
		l1.196,1.004l1.905-1.462c0.248,0.183,0.501,0.36,0.756,0.532l-0.721,2.288l1.352,0.781l1.619-1.767
		c0.276,0.136,0.555,0.267,0.838,0.391l-0.312,2.376l1.465,0.534l1.288-2.021c0.297,0.086,0.594,0.166,0.894,0.239l0.104,2.396
		l1.538,0.271l0.919-2.218c0.304,0.033,0.61,0.059,0.919,0.079L34.189,45h1.56l0.519-2.345c0.308-0.02,0.615-0.046,0.92-0.079
		l0.917,2.216l1.537-0.271l0.104-2.394c0.302-0.072,0.602-0.152,0.896-0.239l1.287,2.021l1.466-0.534L43.085,41
		c0.283-0.125,0.562-0.255,0.838-0.391l1.62,1.766l1.352-0.781l-0.721-2.287c0.257-0.172,0.508-0.348,0.756-0.532l1.903,1.461
		l1.195-1.003l-1.107-2.129c0.223-0.213,0.441-0.43,0.654-0.653l2.128,1.108l1.004-1.196l-1.462-1.903
		C51.427,34.212,51.961,33.451,52.134,33.194z"/>
</g>
</svg>
